# xmcd
#
# Track frame offsets: 
#        150
#        22087
#        35875
#        50962
#        66507
#        80522
#        101457
#        118047
#        138912
#        156637
#        170505
#        187815
#        208682
#        225797
#        244965
#        262440
#        285280
#        301505
#        314865
#        329112
#
# Disc length: 4582 seconds
#
# Revision: 2
# Processed by: cddbd v1.4PL0 Copyright (c) Steve Scherf et al.
# Submitted via: ExactAudioCopy v0.90b4
#
DISCID=3411e414
DTITLE=Dan Seals - Portrait
DYEAR=1900
DGENRE=Country
TTITLE0=Everything That Glitters (Is Not Gold)
TTITLE1=Three Time Loser
TTITLE2=(You Bring Out) The Wild Side Of Me
TTITLE3=My Baby's Got Good Timing
TTITLE4=God Must Be A Cowboy At Heart
TTITLE5=They Rage On
TTITLE6=Bop
TTITLE7=You Still Move Me
TTITLE8=Meet Me In Montana
TTITLE9=I Won't Be Blue Anymore
TTITLE10=Love On Arrival
TTITLE11=Out On The Front Line
TTITLE12=I Will Be There
TTITLE13=Addicted
TTITLE14=Big Wheels In The Moonlight
TTITLE15=In San Antone
TTITLE16=My Old Yellow Car
TTITLE17=Lullaby
TTITLE18=One Friend
TTITLE19=Those
EXTD=
EXTT0=
EXTT1=
EXTT2=
EXTT3=
EXTT4=
EXTT5=
EXTT6=
EXTT7=
EXTT8=
EXTT9=
EXTT10=
EXTT11=
EXTT12=
EXTT13=
EXTT14=
EXTT15=
EXTT16=
EXTT17=
EXTT18=
EXTT19=
PLAYORDER=
